<svg width="16" height="16" viewBox="0 0 16 16" fill="none" xmlns="http://www.w3.org/2000/svg">
<g clip-path="url(#clip0_15_6048)">
<path d="M4.41775 3.64119C4.187 3.41025 3.81262 3.41025 3.58187 3.64119C2.72512 4.49794 2.30403 5.69144 2.4264 6.91588C2.45693 7.22091 2.7139 7.44828 3.014 7.44828C3.03371 7.44828 3.05359 7.44728 3.07331 7.44532C3.39825 7.41282 3.63528 7.12294 3.60278 6.79822C3.51568 5.92807 3.81284 5.08197 4.41775 4.47703C4.64868 4.24632 4.64868 3.87191 4.41775 3.64119Z" fill="#526578"/>
<path d="M6.75863 0C3.03191 0 0 3.03191 0 6.75863C0 10.4853 3.03191 13.5173 6.75863 13.5173C10.4853 13.5173 13.5173 10.4853 13.5173 6.75863C13.5173 3.03191 10.4853 0 6.75863 0ZM6.75863 12.335C3.68375 12.335 1.18228 9.8335 1.18228 6.75863C1.18228 3.68375 3.68375 1.18228 6.75863 1.18228C9.83331 1.18228 12.335 3.68375 12.335 6.75863C12.335 9.8335 9.8335 12.335 6.75863 12.335Z" fill="#526578"/>
<path d="M15.8268 14.9909L11.5312 10.6954C11.3003 10.4644 10.9263 10.4644 10.6954 10.6954C10.4644 10.9261 10.4644 11.3005 10.6954 11.5312L14.991 15.8268C15.1064 15.9423 15.2575 16 15.4089 16C15.5602 16 15.7114 15.9423 15.8268 15.8268C16.0577 15.5961 16.0577 15.2217 15.8268 14.9909Z" fill="#526578"/>
</g>
<defs>
<clipPath id="clip0_15_6048">
<rect width="16" height="16" fill="white"/>
</clipPath>
</defs>
</svg>
